<svg xmlns="http://www.w3.org/2000/svg" width="499.97" height="499.97" viewBox="0 0 346 346">
  <metadata><?xpacket begin="﻿" id="W5M0MpCehiHzreSzNTczkc9d"?>
<x:xmpmeta xmlns:x="adobe:ns:meta/" x:xmptk="Adobe XMP Core 5.6-c138 79.159824, 2016/09/14-01:09:01        ">
   <rdf:RDF xmlns:rdf="http://www.w3.org/1999/02/22-rdf-syntax-ns#">
      <rdf:Description rdf:about=""/>
   </rdf:RDF>
</x:xmpmeta>
                                                                                                    
                                                                                                    
                                                                                                    
                                                                                                    
                                                                                                    
                                                                                                    
                                                                                                    
                                                                                                    
                                                                                                    
                                                                                                    
                                                                                                    
                                                                                                    
                                                                                                    
                                                                                                    
                                                                                                    
                                                                                                    
                                                                                                    
                                                                                                    
                                                                                                    
                                                                                                    
                           
<?xpacket end="w"?></metadata>
<defs>
    <style>
      .cls-1 {
        fill-rule: evenodd;
      }
    </style>
  </defs>
  <path id="dribbble" class="cls-1" d="M234,37C138.61,37,61,114.61,61,210s77.61,173,173,173,173-77.61,173-173S329.39,37,234,37Zm0,25.448a147.091,147.091,0,0,1,97.946,37.24c-2.64,3.791-24.877,33.674-77.42,53.377a788.859,788.859,0,0,0-55.15-86.5A147.54,147.54,0,0,1,234,62.448ZM171.184,76.492a943.667,943.667,0,0,1,54.769,85.453c-69.109,18.364-129.981,18.109-136.6,18.014A148.293,148.293,0,0,1,171.184,76.492ZM86.215,210.212l0.063-4.52c6.464,0.158,78.086,1.066,151.873-21.013,4.245,8.278,8.267,16.695,11.984,25.09l-5.817,1.74c-76.206,24.636-116.753,91.792-120.109,97.514A147.306,147.306,0,0,1,86.215,210.212ZM233.978,357.976a146.924,146.924,0,0,1-90.691-31.192c2.66-5.407,32.585-63.228,115.928-92.266l0.971-.317c20.76,53.893,29.312,99.087,31.529,112.054A146.4,146.4,0,0,1,233.978,357.976Zm82.595-25.258c-1.522-9-9.377-52.246-28.7-105.36,46.291-7.41,86.987,4.732,92.034,6.337a148.077,148.077,0,0,1-63.333,99.023h0Zm-37.74-128.641-3.188-7.636c-3.062-7.2-6.357-14.359-9.8-21.413,54.653-22.289,79.4-54.041,82.53-58.253a146.983,146.983,0,0,1,33.346,92.053C376.844,207.792,328.019,197.888,278.833,204.077Z" transform="translate(-61 -37)"/>
</svg>
