<svg xmlns="http://www.w3.org/2000/svg" width="495" height="495" viewBox="0 0 401.949 401.949">
  <metadata><?xpacket begin="﻿" id="W5M0MpCehiHzreSzNTczkc9d"?>
<x:xmpmeta xmlns:x="adobe:ns:meta/" x:xmptk="Adobe XMP Core 5.6-c138 79.159824, 2016/09/14-01:09:01        ">
   <rdf:RDF xmlns:rdf="http://www.w3.org/1999/02/22-rdf-syntax-ns#">
      <rdf:Description rdf:about=""/>
   </rdf:RDF>
</x:xmpmeta>
                                                                                                    
                                                                                                    
                                                                                                    
                                                                                                    
                                                                                                    
                                                                                                    
                                                                                                    
                                                                                                    
                                                                                                    
                                                                                                    
                                                                                                    
                                                                                                    
                                                                                                    
                                                                                                    
                                                                                                    
                                                                                                    
                                                                                                    
                                                                                                    
                                                                                                    
                                                                                                    
                           
<?xpacket end="w"?></metadata>
<defs>
    <style>
      .cls-1 {
        fill-rule: evenodd;
      }
    </style>
  </defs>
  <path id="instagram" class="cls-1" d="M312.955,68H131.038A112.168,112.168,0,0,0,19,180.041V361.959A112.167,112.167,0,0,0,131.038,474H312.955A112.169,112.169,0,0,0,425,361.959V180.041A112.167,112.167,0,0,0,312.955,68Zm76.024,293.96a76.106,76.106,0,0,1-76.022,76.019H131.038a76.1,76.1,0,0,1-76.017-76.019V180.041a76.1,76.1,0,0,1,76.017-76.019H312.955a76.107,76.107,0,0,1,76.021,76.019V361.959h0ZM222,166.388A104.614,104.614,0,1,0,326.615,271.005,104.734,104.734,0,0,0,222,166.388Zm0,173.2A68.592,68.592,0,1,1,290.592,271,68.67,68.67,0,0,1,222,339.592ZM331,135.844a26.4,26.4,0,1,0,18.684,7.733A26.519,26.519,0,0,0,331,135.844Z" transform="translate(-21.026 -70.026)"/>
</svg>
