<svg xmlns="http://www.w3.org/2000/svg" width="499.99" height="500" viewBox="0 0 454 454.009">
  <metadata><?xpacket begin="﻿" id="W5M0MpCehiHzreSzNTczkc9d"?>
<x:xmpmeta xmlns:x="adobe:ns:meta/" x:xmptk="Adobe XMP Core 5.6-c138 79.159824, 2016/09/14-01:09:01        ">
   <rdf:RDF xmlns:rdf="http://www.w3.org/1999/02/22-rdf-syntax-ns#">
      <rdf:Description rdf:about=""/>
   </rdf:RDF>
</x:xmpmeta>
                                                                                                    
                                                                                                    
                                                                                                    
                                                                                                    
                                                                                                    
                                                                                                    
                                                                                                    
                                                                                                    
                                                                                                    
                                                                                                    
                                                                                                    
                                                                                                    
                                                                                                    
                                                                                                    
                                                                                                    
                                                                                                    
                                                                                                    
                                                                                                    
                                                                                                    
                                                                                                    
                           
<?xpacket end="w"?></metadata>
<defs>
    <style>
      .cls-1 {
        fill-rule: evenodd;
      }
    </style>
  </defs>
  <path id="twitter" class="cls-1" d="M450.48,88.818a187.32,187.32,0,0,1-59.181,22.62,93.16,93.16,0,0,0-161.118,63.726,93.81,93.81,0,0,0,2.412,21.22A264.384,264.384,0,0,1,40.626,99.034,93.318,93.318,0,0,0,69.454,223.409a93.055,93.055,0,0,1-42.183-11.7v1.164a93.276,93.276,0,0,0,74.7,91.378A92.887,92.887,0,0,1,59.9,305.833a93.292,93.292,0,0,0,86.985,64.725,186.861,186.861,0,0,1-115.66,39.861A195.824,195.824,0,0,1,9,409.144,263.7,263.7,0,0,0,151.772,451C323.085,451,416.76,309.02,416.76,185.893l-0.3-12.072A187.433,187.433,0,0,0,463,125.658a186.175,186.175,0,0,1-53.475,14.678A93.68,93.68,0,0,0,450.48,88.818Z" transform="translate(-9 -39.496)"/>
</svg>
