<?xml version="1.0" standalone="no"?>
<!DOCTYPE svg PUBLIC "-//W3C//DTD SVG 20010904//EN"
 "http://www.w3.org/TR/2001/REC-SVG-20010904/DTD/svg10.dtd">
<svg version="1.0" xmlns="http://www.w3.org/2000/svg"
 width="16.000000pt" height="16.000000pt" viewBox="0 0 16.000000 16.000000"
 preserveAspectRatio="xMidYMid meet">
<metadata>
Created by potrace 1.11, written by Peter Selinger 2001-2013
</metadata>
<g transform="translate(0.000000,16.000000) scale(0.002000,-0.002000)"
fill="#000000" stroke="none">
<path d="M0 4000 l0 -4000 4000 0 4000 0 0 4000 0 4000 -4000 0 -4000 0 0
-4000z m4062 2991 l33 -29 3 -200 c4 -228 -3 -260 -61 -288 -30 -14 -37 -14
-70 0 -62 26 -69 55 -65 288 l3 200 33 29 c20 18 43 29 62 29 19 0 42 -11 62
-29z m-1269 -331 c21 -17 150 -229 211 -348 33 -64 -11 -132 -85 -132 -21 0
-46 8 -57 18 -24 20 -208 338 -217 374 -8 29 16 81 42 97 29 17 78 12 106 -9z
m2518 10 c28 -15 52 -68 44 -98 -9 -36 -193 -354 -217 -374 -25 -22 -86 -23
-115 -3 -31 21 -48 77 -32 107 56 110 197 343 217 358 27 22 72 26 103 10z
m-976 -660 c595 -128 1072 -549 1259 -1110 68 -204 80 -288 80 -540 0 -195 -3
-238 -22 -327 -42 -192 -115 -380 -208 -536 -83 -138 -269 -374 -502 -635
-227 -254 -264 -325 -286 -557 -12 -120 -14 -129 -40 -151 l-27 -24 -584 0
-585 0 -30 27 c-29 27 -31 32 -40 148 -17 225 -56 298 -305 575 -458 508 -619
776 -697 1162 -20 97 -23 143 -23 328 1 185 4 230 23 320 113 521 435 941 902
1175 163 81 280 120 475 156 143 26 466 21 610 -11z m-2329 -346 c189 -108
210 -124 219 -165 7 -32 -16 -83 -44 -99 -45 -24 -81 -11 -257 91 -96 56 -181
111 -189 122 -31 44 -10 117 39 137 42 17 65 9 232 -86z m4252 61 c26 -30 29
-80 7 -112 -8 -11 -93 -66 -189 -122 -176 -102 -212 -115 -257 -91 -28 16 -51
67 -44 99 9 41 30 57 220 165 149 85 174 97 205 92 20 -3 44 -16 58 -31z
m-1649 -3841 c26 -21 31 -33 31 -69 0 -36 -5 -48 -31 -69 l-31 -26 -578 0
-578 0 -31 26 c-26 21 -31 33 -31 69 0 36 5 48 31 69 l31 26 578 0 578 0 31
-26z m-115 -380 c50 -51 27 -135 -43 -154 -48 -13 -854 -13 -902 0 -70 19 -93
103 -43 154 l27 26 467 0 467 0 27 -26z m-144 -359 c59 -30 68 -98 21 -146
l-29 -29 -334 0 c-246 0 -339 4 -358 13 -62 31 -66 122 -7 157 30 19 52 20
355 20 269 0 328 -3 352 -15z"/>
<path d="M3740 5830 c-598 -106 -1073 -566 -1202 -1165 -25 -117 -35 -369 -19
-490 7 -49 24 -135 38 -190 81 -309 212 -513 641 -993 178 -198 222 -256 267
-347 40 -81 63 -162 72 -257 l6 -68 463 0 464 0 0 48 c0 63 23 167 53 240 37
92 103 183 267 367 387 433 545 667 629 925 48 147 61 231 68 415 4 144 2 188
-15 290 -109 631 -593 1118 -1220 1226 -149 25 -366 25 -512 -1z m326 -202
c43 -42 33 -121 -18 -145 -13 -6 -75 -16 -140 -22 -125 -12 -251 -44 -353 -90
-206 -94 -407 -289 -509 -494 -58 -118 -111 -145 -175 -91 -42 35 -42 83 0
167 121 241 330 452 564 569 171 87 387 139 548 134 47 -2 63 -7 83 -28z
m-478 -1096 c70 -33 139 -62 154 -66 38 -9 71 7 147 70 69 58 96 70 134 60 12
-3 52 -30 88 -60 76 -63 109 -79 147 -70 15 4 86 34 157 68 154 72 202 79 241
33 13 -15 24 -41 24 -56 0 -15 -40 -106 -88 -202 -229 -453 -312 -847 -312
-1487 0 -144 -3 -189 -15 -212 -30 -59 -98 -68 -146 -21 l-29 29 0 184 c0 593
67 990 231 1376 27 64 47 117 45 119 -1 2 -22 -4 -46 -12 -93 -33 -186 -12
-275 61 l-45 36 -45 -36 c-89 -73 -182 -94 -275 -61 -24 8 -45 14 -46 12 -2
-2 18 -55 45 -119 157 -370 217 -700 228 -1265 l6 -291 -31 -31 c-49 -49 -116
-40 -147 19 -12 23 -15 68 -15 212 0 661 -89 1069 -335 1535 -67 127 -76 163
-49 201 40 57 85 52 252 -26z m-685 -61 c23 -22 36 -79 37 -149 0 -69 23 -179
59 -283 32 -91 29 -129 -10 -161 -26 -22 -82 -23 -114 -2 -50 33 -122 298
-127 471 -3 79 0 94 17 113 39 44 101 49 138 11z"/>
</g>
</svg>
