<?xml version="1.0" standalone="no"?>
<!DOCTYPE svg PUBLIC "-//W3C//DTD SVG 20010904//EN"
 "http://www.w3.org/TR/2001/REC-SVG-20010904/DTD/svg10.dtd">
<svg version="1.0" xmlns="http://www.w3.org/2000/svg"
 width="1200.000000pt" height="1200.000000pt" viewBox="0 0 1200.000000 1200.000000"
 preserveAspectRatio="xMidYMid meet">
<metadata>
Created by potrace 1.11, written by Peter Selinger 2001-2013
</metadata>
<g transform="translate(0.000000,1200.000000) scale(0.100000,-0.100000)"
fill="#000000" stroke="none">
<path d="M210 5995 l0 -5296 2303 4 c1266 2 2320 7 2342 9 22 3 85 8 140 12
55 4 107 9 115 11 8 2 47 7 85 10 39 3 81 8 95 10 14 2 45 7 70 10 45 6 57 8
140 20 54 8 188 32 250 46 25 5 54 11 65 13 506 100 1139 338 1570 591 198
116 485 323 629 454 182 166 285 268 415 411 258 283 517 636 721 982 50 84
95 160 100 168 5 8 46 88 92 177 l82 162 -356 358 c-372 374 -475 479 -841
857 -347 358 -700 729 -766 805 -9 10 -64 69 -122 132 -58 63 -121 131 -139
152 -17 20 -35 37 -39 37 -4 0 -7 -17 -7 -37 0 -76 -18 -323 -27 -383 -3 -19
-9 -62 -12 -95 -4 -33 -8 -62 -10 -65 -2 -3 -6 -26 -10 -50 -16 -114 -70 -320
-115 -445 -11 -33 -23 -67 -25 -75 -8 -31 -59 -149 -105 -242 -71 -141 -122
-229 -202 -343 -4 -5 -43 -55 -87 -110 -309 -391 -755 -691 -1301 -877 -191
-65 -505 -142 -670 -163 -25 -3 -56 -8 -70 -10 -14 -2 -50 -7 -80 -10 -30 -3
-68 -8 -85 -10 -89 -13 -260 -18 -733 -19 -459 -1 -523 0 -526 14 -3 8 -4
1267 -4 2797 l0 2781 27 4 c14 1 387 3 829 2 441 0 801 3 800 7 -3 7 -102 117
-212 236 -32 35 -68 73 -78 86 -32 36 -107 119 -147 162 -21 22 -66 72 -101
110 -35 39 -102 113 -150 165 -48 52 -161 176 -250 275 -160 176 -299 329
-410 449 -30 33 -59 65 -65 72 -5 6 -48 53 -95 104 -47 51 -92 100 -100 110
-20 23 -170 188 -241 264 -31 34 -73 81 -95 105 -21 25 -48 54 -59 66 -56 59
-206 224 -230 253 l-27 32 -1139 0 -1139 0 0 -5295z"/>
<path d="M3616 11268 c10 -13 24 -27 30 -33 6 -5 38 -39 70 -75 79 -88 216
-240 284 -315 30 -33 91 -100 135 -149 44 -49 85 -94 90 -100 13 -13 87 -95
200 -220 44 -49 89 -98 100 -110 11 -12 58 -64 105 -116 47 -52 94 -104 105
-116 11 -11 54 -58 95 -104 41 -46 80 -88 85 -94 6 -6 73 -81 149 -166 77 -85
144 -159 150 -165 6 -5 49 -53 96 -105 47 -52 90 -100 95 -106 6 -6 46 -50 90
-99 44 -48 91 -100 105 -115 14 -15 79 -86 144 -159 65 -72 126 -135 135 -139
9 -4 296 -7 639 -7 342 1 622 -1 623 -4 0 -3 1 -317 2 -698 l2 -692 56 -58
c31 -32 78 -81 105 -109 106 -111 382 -401 432 -453 60 -62 321 -336 402 -421
29 -30 123 -129 210 -220 87 -91 183 -192 215 -225 31 -33 125 -132 210 -220
84 -88 172 -181 196 -206 52 -56 345 -363 409 -429 25 -26 114 -119 199 -208
138 -145 175 -179 169 -154 -1 4 3 30 7 57 10 57 9 51 18 90 4 17 9 48 12 70
2 22 9 72 14 110 6 39 13 93 16 120 3 28 7 68 10 90 12 102 15 137 21 230 3
55 8 116 10 135 13 133 18 601 18 1817 0 1247 2 1392 16 1395 8 2 437 3 953 3
l937 -1 0 1248 0 1248 -4092 0 -4091 0 19 -22z"/>
</g>
</svg>
